<svg  viewBox="0 0 300 300" fill="none" xmlns="http://www.w3.org/2000/svg">
<path
d="M0 20C0 8.9543 8.95431 0 20 0H280C291.046 0 300 8.95431 300 20V280C300 291.046 291.046 300 280 300H20C8.9543 300 0 291.046 0 280V20Z"
fill="#2DB0CD"/>
<path
d="M50 145C50 133.954 58.9543 125 70 125H230C241.046 125 250 133.954 250 145V155C250 166.046 241.046 175 230 175H70C58.9543 175 50 166.046 50 155V145Z"
fill="#F2F3FF"/>
<path
d="M145 250C133.954 250 125 241.046 125 230V70C125 58.9543 133.954 50 145 50H155C166.046 50 175 58.9543 175 70V230C175 241.046 166.046 250 155 250H145Z"
fill="#F2F3FF"/>
<path d="M125 125H175V175H125V125Z" fill="#F2F3FF"/>
    </svg>
